<mxfile host="app.diagrams.net" modified="2022-05-28T23:42:24.343Z" agent="5.0 (Windows)" etag="zR075Z4bHwqkDr_pTB5b" version="18.1.3" type="github">
  <diagram id="cnAHk0LYaS0VBpbhhp4M" name="Page-1">
    <mxGraphModel dx="1510" dy="947" grid="1" gridSize="10" guides="1" tooltips="1" connect="1" arrows="1" fold="1" page="1" pageScale="1" pageWidth="1169" pageHeight="827" math="0" shadow="0">
      <root>
        <mxCell id="0" />
        <mxCell id="1" parent="0" />
        <mxCell id="lbKvrVufpIHSut6LT4EA-1" value="" style="shape=image;verticalLabelPosition=bottom;labelBackgroundColor=default;verticalAlign=top;aspect=fixed;imageAspect=0;image=https://www.icmetl.org/wp-content/uploads/2020/11/user-icon-human-person-sign-vector-10206693.png;" vertex="1" parent="1">
          <mxGeometry x="140" y="24" width="170" height="170" as="geometry" />
        </mxCell>
        <mxCell id="lbKvrVufpIHSut6LT4EA-4" value="&lt;b style=&quot;font-size: 20px;&quot;&gt;User&lt;/b&gt;" style="text;html=1;strokeColor=none;fillColor=none;align=center;verticalAlign=middle;whiteSpace=wrap;rounded=0;fontSize=20;" vertex="1" parent="1">
          <mxGeometry x="195" y="194" width="60" height="30" as="geometry" />
        </mxCell>
        <mxCell id="lbKvrVufpIHSut6LT4EA-6" value="" style="shape=flexArrow;endArrow=classic;html=1;rounded=0;fontSize=20;exitX=1;exitY=0.5;exitDx=0;exitDy=0;" edge="1" parent="1" source="lbKvrVufpIHSut6LT4EA-1">
          <mxGeometry width="50" height="50" relative="1" as="geometry">
            <mxPoint x="300" y="134" as="sourcePoint" />
            <mxPoint x="500" y="109" as="targetPoint" />
          </mxGeometry>
        </mxCell>
        <mxCell id="lbKvrVufpIHSut6LT4EA-8" value="&lt;b style=&quot;font-size: 20px;&quot;&gt;Finds Route&lt;br&gt;&lt;/b&gt;" style="text;html=1;strokeColor=none;fillColor=none;align=center;verticalAlign=middle;whiteSpace=wrap;rounded=0;fontSize=20;" vertex="1" parent="1">
          <mxGeometry x="690" y="64" width="140" height="30" as="geometry" />
        </mxCell>
        <mxCell id="lbKvrVufpIHSut6LT4EA-9" value="" style="shape=image;verticalLabelPosition=bottom;labelBackgroundColor=default;verticalAlign=top;aspect=fixed;imageAspect=0;image=https://icon-library.com/images/modules-icon/modules-icon-26.jpg;" vertex="1" parent="1">
          <mxGeometry x="860" y="304" width="170" height="170" as="geometry" />
        </mxCell>
        <mxCell id="lbKvrVufpIHSut6LT4EA-10" value="&lt;div&gt;&lt;b style=&quot;font-size: 20px;&quot;&gt;Module&lt;/b&gt;&lt;/div&gt;" style="text;html=1;strokeColor=none;fillColor=none;align=center;verticalAlign=middle;whiteSpace=wrap;rounded=0;fontSize=20;" vertex="1" parent="1">
          <mxGeometry x="910" y="474" width="70" height="30" as="geometry" />
        </mxCell>
        <mxCell id="lbKvrVufpIHSut6LT4EA-11" value="" style="shape=image;verticalLabelPosition=bottom;labelBackgroundColor=default;verticalAlign=top;aspect=fixed;imageAspect=0;image=https://cdn1.iconfinder.com/data/icons/laptop-13/100/laptop28-512.png;" vertex="1" parent="1">
          <mxGeometry x="500" y="29" width="160" height="160" as="geometry" />
        </mxCell>
        <mxCell id="lbKvrVufpIHSut6LT4EA-12" value="&lt;b style=&quot;font-size: 20px;&quot;&gt;Web App&lt;/b&gt;" style="text;html=1;strokeColor=none;fillColor=none;align=center;verticalAlign=middle;whiteSpace=wrap;rounded=0;fontSize=20;" vertex="1" parent="1">
          <mxGeometry x="535" y="194" width="90" height="30" as="geometry" />
        </mxCell>
        <mxCell id="lbKvrVufpIHSut6LT4EA-16" value="" style="shape=flexArrow;endArrow=classic;html=1;rounded=0;fontSize=20;exitX=1;exitY=0.5;exitDx=0;exitDy=0;" edge="1" parent="1">
          <mxGeometry width="50" height="50" relative="1" as="geometry">
            <mxPoint x="665" y="108.5" as="sourcePoint" />
            <mxPoint x="855" y="108.5" as="targetPoint" />
          </mxGeometry>
        </mxCell>
        <mxCell id="lbKvrVufpIHSut6LT4EA-17" value="&lt;b style=&quot;font-size: 20px;&quot;&gt;Opens Page&lt;/b&gt;" style="text;html=1;strokeColor=none;fillColor=none;align=center;verticalAlign=middle;whiteSpace=wrap;rounded=0;fontSize=20;" vertex="1" parent="1">
          <mxGeometry x="350" y="64" width="120" height="30" as="geometry" />
        </mxCell>
        <mxCell id="lbKvrVufpIHSut6LT4EA-21" value="" style="shape=image;verticalLabelPosition=bottom;labelBackgroundColor=default;verticalAlign=top;aspect=fixed;imageAspect=0;image=data:image/png,iVBORw0KGgoAAAANSUhEUgAAAOEAAADhCAMAAAAJbSJIAAAAeFBMVEX///8AAAA6Ojr7+/vc3NyUlJT5+fnn5+eysrL19fXCwsLg4ODs7OzMzMwxMTGioqINDQ1WVlatra2BgYG4uLhnZ2dOTk7T09NHR0dbW1t1dXV7e3uMjIwlJSXIyMhtbW03NzcgICBBQUGPj4+kpKQsLCwYGBgkJCSPeO9MAAAIeElEQVR4nO2d22KiMBCGpSiIouBZ66na2r7/G67VtlvJP0DIJFmy+W5LMaPJZE6ZdDoej8fj8Xg8Ho/H4/F4PIYIo3S46sZJaHsgWkhXr5t98MX5eTq0PSBmDsc8KHDuxbZHxcd0XxTvzsKRH3KAxbtxTG2PTp10UyLglTfbA1Sl7Af8mqrt1qy9SgGDYN9mjTOrIeCVru1xNqamgEHQVp1aZ4reObVTpc5rCxgET7YH24RYQsAgmNkebgPOUhIGI9vjlaYvJ2Cwtz1gWRLB0q6iZ3vIkmSyAganxPaYpYhO0hK2zEKVXYWfjA2NLUzjUT/LepVko5JpNSGkWG57u8WY+ONKv3TRqLd4qv+l5zPKFEnxP3x59eFhDf+se08M+xNp/RcM8LugOXP55UNAgy7XKt9oIS3djTl82zN48vzgB8KFqtE67UvMzQLQLTiBBwteIPI7iBmhzvylsXxX3QFeGILnssIzEVgSxWeY6Db//W4ADdgFjwmxCrAUFzrkC3dq8kENOKozePA1rDUI2FWZoHc24lsP4lPAYBEf0uAlyjipFGcxVgYCbNM6EvJbNbXjKKUSiu/9ZyRsuAUWAOoBzFLgG4kPgS9LiYpgdF3A2IGmEZUIeAjtPPYFRFv+EDwm2Ctb8ZlnVgF5pigxKvDctvAIClSBxdocFiVzJYcuFPKPDo+PIP+K02pr4qFCcEAemhEPjyLbXLR7moPMqiasCW8AZ5z++iEJ9JAZN4tQ3ZK5ki/JWYVM7yvLwec3Eg0JS5Ex2lZui6632XzVrWRY5s3BSXh7+WZyof7Gl2Urm6OTOUtQD2x2lTDuhrS7RAZepMGRmFL4NClpbh8Zk7HyNj2fY0GqGd4YgrRfjSM+TSC2wifmMNBKUkDtqxD4sYqQ6hTDt0KwluMXsBNSoW0Io0kKLW4tSWYZw4nRq8DWhp5QbHW10DcTxk+FekZXJLaufc86hZDJe+T8gAfq7YrLiPEjYfJZY9VVHevtyFrYhj5Ra1IrqTTfmFO/KKuluR6pvDJqyV3TBvYKTj0Giem9P+9zf1gIDBo+e5AkPkL59qyRpzso+2ykyCPqL98fP3a81ZK2ByE8HfkeSDrqPU/GpyC/nBezvq56S6BKi3FMvYRRknDufgLAyNCUd7UFqMUyoGhMAvYmA2U6JgEStreKHOL+bwjWobYaFjtMRQnbVfNYCfC621hCXgJIzmqIQdkEJV61mhjGScBRR8eUKQjTOLYQUfre9ph4QSFMdj/bKkjVXGwPiheUl3HLgYKRrzYfUxVABVn6w21GgZUQO9uj4gQY3wFzRZllEiihU1uG/oIk2xBnkoKFOyY4VfO1d8bdJ1bilY0rYSmsTm8sHQmflmYtF9kqTaKQE/MSQsPmN/nliZHzenPcZoehSVX2ViWiFvaTzNxCxylLA+Q7U0JKlWTxsp4bma6p/JlfPvaZCeXDVa7fjJOJXcmuiMGTgfVYuWdoxoCtHxOt8Eyx1N87CR9dMYiBtjuvlkU0EFsYkSdYzGBgMaofV1fDRBAstrsajYRPRlZlNBPnW0mejmDFUCOzZNrgMBYTxnoKJoMjy9FLabjP4ZcSr6a742K55vTxX05VItoI1nKGaaIkjfuz9zIR3QjydUtOyBur49VMQtftOxLF7HRSqpWD3j5fRqHOQjlUXzfEESKHfsROeoIiupTBjOHGwdycxi44CObGnvgFVDdOlUvABkem+peaAaba29qZHYOsG7eqz9BxXbdKs/6DSlfUN8OpCsJOB6QUnCl3uQM60rlUXdeB3QjMnvbUDjDdHDvdYqD3pW1ECV9sD4kZUUK3LNNOR7RqXJPQ/d9QlLCVNwbRgDJXDYGMW4sDSze71WprrsSwP1ucL3lwGk+eeyPzl2aB+shXxtevtoU8Wr6cGr7JBuSd+QKK0w/x7VeOJsMIqNqcKxncp/NcnN0vK0BtwHiqMrtLUr5PjOUqwSTlCeyX1OnfOZtZjigozOE8hXX6lB+q36MOCpgy5BCj8hn6jYEcCbhbgKNjFer0ZUfEEGXYGIKJ9SufdIeE4FEB9SiNTNmT3jwQTucrm1WVWvQ3Y50HBvBIlJu0yl0LynzVxAPEV63cn6OeGmX8QAqinlXZc5LuIK7JGyWLWZW/UfmLubTU8JBHypS3ivpNi3/QUIg1pYvKld0a2VX4CW9hazQqu/hFOYdPKtLLZEMWzpap03RYfQHGD6vB26z8ZqKL8uZEVMy93o51pgPiFyYDOIMl88k3dcUNTxtO/lq6WNMStlvKXi6tHp+J0GsfJiGs4cGLg//MG0PKCWnSwmuRO/OC3iV/HXUVYwafG9lJxYgMSMnCygH+YwscsSEwKiFigGp4al6ppgZLgA/oSlF7Af0BdsTy/uMN4PHTgMlWa+wgYsN1Id0X70yOKNgsxIfAYgXbxZlVwDFXMoFPwpBVQr5MTK1ZCvrTglnKdS/kJ4zF60CJiBoMjB1oGq57E6++C2eWBKgHIXqPLqABakD2GicS3vonMAHzojUPnoE7fhM/TGTHnDtAhnWhbSnyr07oXRxb/o49Hwtrjh8C21BH4kyJ6j3Q46mOSCX8qF9LEXdXICI1DSIiP7z0NGVhsQZcH+7fZkyYYtRaSWdN/IvLZDbQl4ClNOB4settKd1R4rYlo6wnQTYdDGPNeckmLYXadSSwQeurU7u6DCalp3AhbTv9IO3X4euo/2Vku+207zig5A29bTxcLecVtPJwh0z6qV07xTfE+VtEW1vu1k50t/e6hG49e7K9Atbs0NbWKXonrG7r2foDZBVlNRvz5dDspCW5lbydu4QAcWlm8OHQ+b84E+Iy+dFIXalBhv3tT6D4Y7OzcBzBBGESd1fD1NaZEo/H4/F4PB6Px+PxeDz/I38A/sZpRoj3tcsAAAAASUVORK5CYII=;" vertex="1" parent="1">
          <mxGeometry x="860" y="29" width="170" height="170" as="geometry" />
        </mxCell>
        <mxCell id="lbKvrVufpIHSut6LT4EA-22" value="" style="shape=flexArrow;endArrow=classic;html=1;rounded=0;fontSize=20;exitX=1;exitY=0.5;exitDx=0;exitDy=0;" edge="1" parent="1">
          <mxGeometry width="50" height="50" relative="1" as="geometry">
            <mxPoint x="944.5" y="199" as="sourcePoint" />
            <mxPoint x="944.5" y="304" as="targetPoint" />
          </mxGeometry>
        </mxCell>
        <mxCell id="lbKvrVufpIHSut6LT4EA-23" value="&lt;b style=&quot;font-size: 20px;&quot;&gt;Represents&lt;br&gt;&lt;/b&gt;" style="text;html=1;strokeColor=none;fillColor=none;align=center;verticalAlign=middle;whiteSpace=wrap;rounded=0;fontSize=20;" vertex="1" parent="1">
          <mxGeometry x="330" y="644" width="140" height="30" as="geometry" />
        </mxCell>
        <mxCell id="lbKvrVufpIHSut6LT4EA-24" value="" style="shape=image;verticalLabelPosition=bottom;labelBackgroundColor=default;verticalAlign=top;aspect=fixed;imageAspect=0;image=https://cdn-icons-png.flaticon.com/512/84/84583.png;" vertex="1" parent="1">
          <mxGeometry x="150" y="304" width="170" height="170" as="geometry" />
        </mxCell>
        <mxCell id="lbKvrVufpIHSut6LT4EA-26" value="" style="shape=image;verticalLabelPosition=bottom;labelBackgroundColor=default;verticalAlign=top;aspect=fixed;imageAspect=0;image=https://icon-library.com/images/engine-icon/engine-icon-11.jpg;" vertex="1" parent="1">
          <mxGeometry x="495" y="304" width="170" height="170" as="geometry" />
        </mxCell>
        <mxCell id="lbKvrVufpIHSut6LT4EA-28" value="" style="shape=flexArrow;endArrow=classic;html=1;rounded=0;fontSize=20;exitX=0;exitY=0.5;exitDx=0;exitDy=0;entryX=1;entryY=0.5;entryDx=0;entryDy=0;" edge="1" parent="1" source="lbKvrVufpIHSut6LT4EA-9" target="lbKvrVufpIHSut6LT4EA-26">
          <mxGeometry width="50" height="50" relative="1" as="geometry">
            <mxPoint x="954.5" y="209" as="sourcePoint" />
            <mxPoint x="954.5" y="314" as="targetPoint" />
          </mxGeometry>
        </mxCell>
        <mxCell id="lbKvrVufpIHSut6LT4EA-29" value="&lt;div&gt;&lt;b style=&quot;font-size: 20px;&quot;&gt;Binding Engine&lt;br&gt;&lt;/b&gt;&lt;/div&gt;" style="text;html=1;strokeColor=none;fillColor=none;align=center;verticalAlign=middle;whiteSpace=wrap;rounded=0;fontSize=20;" vertex="1" parent="1">
          <mxGeometry x="500" y="474" width="155" height="30" as="geometry" />
        </mxCell>
        <mxCell id="lbKvrVufpIHSut6LT4EA-30" value="&lt;div&gt;&lt;b style=&quot;font-size: 20px;&quot;&gt;Page&lt;/b&gt;&lt;/div&gt;" style="text;html=1;strokeColor=none;fillColor=none;align=center;verticalAlign=middle;whiteSpace=wrap;rounded=0;fontSize=20;" vertex="1" parent="1">
          <mxGeometry x="200" y="774" width="70" height="30" as="geometry" />
        </mxCell>
        <mxCell id="lbKvrVufpIHSut6LT4EA-31" value="" style="shape=flexArrow;endArrow=classic;html=1;rounded=0;fontSize=20;exitX=0;exitY=0.5;exitDx=0;exitDy=0;" edge="1" parent="1">
          <mxGeometry width="50" height="50" relative="1" as="geometry">
            <mxPoint x="495" y="388.5" as="sourcePoint" />
            <mxPoint x="320" y="389" as="targetPoint" />
          </mxGeometry>
        </mxCell>
        <mxCell id="lbKvrVufpIHSut6LT4EA-33" value="&lt;b style=&quot;font-size: 20px;&quot;&gt;Passing Component&lt;br&gt;&lt;/b&gt;" style="text;html=1;strokeColor=none;fillColor=none;align=center;verticalAlign=middle;whiteSpace=wrap;rounded=0;fontSize=20;" vertex="1" parent="1">
          <mxGeometry x="690" y="334" width="170" height="30" as="geometry" />
        </mxCell>
        <mxCell id="lbKvrVufpIHSut6LT4EA-34" value="&lt;div&gt;&lt;b style=&quot;font-size: 20px;&quot;&gt;Creates&lt;/b&gt;&lt;/div&gt;&lt;div&gt;&lt;b style=&quot;font-size: 20px;&quot;&gt;Bindings&lt;/b&gt;&lt;/div&gt;" style="text;html=1;strokeColor=none;fillColor=none;align=center;verticalAlign=middle;whiteSpace=wrap;rounded=0;fontSize=20;" vertex="1" parent="1">
          <mxGeometry x="330" y="334" width="170" height="30" as="geometry" />
        </mxCell>
        <mxCell id="lbKvrVufpIHSut6LT4EA-35" value="" style="shape=image;verticalLabelPosition=bottom;labelBackgroundColor=default;verticalAlign=top;aspect=fixed;imageAspect=0;image=https://d338t8kmirgyke.cloudfront.net/icons/icon_pngs/000/002/099/original/page.png;" vertex="1" parent="1">
          <mxGeometry x="150" y="604" width="170" height="170" as="geometry" />
        </mxCell>
        <mxCell id="lbKvrVufpIHSut6LT4EA-36" value="" style="shape=flexArrow;endArrow=classic;html=1;rounded=0;fontSize=20;" edge="1" parent="1">
          <mxGeometry width="50" height="50" relative="1" as="geometry">
            <mxPoint x="235" y="524" as="sourcePoint" />
            <mxPoint x="234.5" y="609" as="targetPoint" />
          </mxGeometry>
        </mxCell>
        <mxCell id="lbKvrVufpIHSut6LT4EA-37" value="&lt;b style=&quot;font-size: 20px;&quot;&gt;Launches&lt;br&gt;&lt;/b&gt;" style="text;html=1;strokeColor=none;fillColor=none;align=center;verticalAlign=middle;whiteSpace=wrap;rounded=0;fontSize=20;" vertex="1" parent="1">
          <mxGeometry x="830" y="234" width="110" height="30" as="geometry" />
        </mxCell>
        <mxCell id="lbKvrVufpIHSut6LT4EA-38" value="" style="shape=image;verticalLabelPosition=bottom;labelBackgroundColor=default;verticalAlign=top;aspect=fixed;imageAspect=0;image=https://cdn4.iconfinder.com/data/icons/web-25/100/Web_Code-512.png;" vertex="1" parent="1">
          <mxGeometry x="492.5" y="604" width="170" height="170" as="geometry" />
        </mxCell>
        <mxCell id="lbKvrVufpIHSut6LT4EA-39" value="&lt;div&gt;&lt;b style=&quot;font-size: 20px;&quot;&gt;Component&lt;/b&gt;&lt;/div&gt;" style="text;html=1;strokeColor=none;fillColor=none;align=center;verticalAlign=middle;whiteSpace=wrap;rounded=0;fontSize=20;" vertex="1" parent="1">
          <mxGeometry x="210" y="484" width="70" height="30" as="geometry" />
        </mxCell>
        <mxCell id="lbKvrVufpIHSut6LT4EA-40" value="" style="shape=flexArrow;endArrow=classic;html=1;rounded=0;fontSize=20;exitX=1;exitY=0.5;exitDx=0;exitDy=0;" edge="1" parent="1">
          <mxGeometry width="50" height="50" relative="1" as="geometry">
            <mxPoint x="315" y="688.5" as="sourcePoint" />
            <mxPoint x="490" y="689" as="targetPoint" />
          </mxGeometry>
        </mxCell>
        <mxCell id="lbKvrVufpIHSut6LT4EA-41" value="&lt;div&gt;&lt;b style=&quot;font-size: 20px;&quot;&gt;Elements&lt;/b&gt;&lt;/div&gt;" style="text;html=1;strokeColor=none;fillColor=none;align=center;verticalAlign=middle;whiteSpace=wrap;rounded=0;fontSize=20;" vertex="1" parent="1">
          <mxGeometry x="545" y="774" width="70" height="30" as="geometry" />
        </mxCell>
        <mxCell id="lbKvrVufpIHSut6LT4EA-43" value="&lt;b style=&quot;font-size: 20px;&quot;&gt;Contains&lt;br&gt;&lt;/b&gt;" style="text;html=1;strokeColor=none;fillColor=none;align=center;verticalAlign=middle;whiteSpace=wrap;rounded=0;fontSize=20;" vertex="1" parent="1">
          <mxGeometry x="250" y="544" width="90" height="30" as="geometry" />
        </mxCell>
        <mxCell id="lbKvrVufpIHSut6LT4EA-44" value="" style="shape=image;verticalLabelPosition=bottom;labelBackgroundColor=default;verticalAlign=top;aspect=fixed;imageAspect=0;image=https://www.icmetl.org/wp-content/uploads/2020/11/user-icon-human-person-sign-vector-10206693.png;" vertex="1" parent="1">
          <mxGeometry x="860" y="589" width="170" height="170" as="geometry" />
        </mxCell>
        <mxCell id="lbKvrVufpIHSut6LT4EA-45" value="&lt;b style=&quot;font-size: 20px;&quot;&gt;User&lt;/b&gt;" style="text;html=1;strokeColor=none;fillColor=none;align=center;verticalAlign=middle;whiteSpace=wrap;rounded=0;fontSize=20;" vertex="1" parent="1">
          <mxGeometry x="915" y="759" width="60" height="30" as="geometry" />
        </mxCell>
        <mxCell id="lbKvrVufpIHSut6LT4EA-46" value="&lt;b style=&quot;font-size: 20px;&quot;&gt;Gives Ability to Manipulate&lt;br&gt;&lt;/b&gt;" style="text;html=1;strokeColor=none;fillColor=none;align=center;verticalAlign=middle;whiteSpace=wrap;rounded=0;fontSize=20;" vertex="1" parent="1">
          <mxGeometry x="690" y="634" width="140" height="30" as="geometry" />
        </mxCell>
        <mxCell id="lbKvrVufpIHSut6LT4EA-47" value="" style="shape=flexArrow;endArrow=classic;html=1;rounded=0;fontSize=20;exitX=1;exitY=0.5;exitDx=0;exitDy=0;" edge="1" parent="1" source="lbKvrVufpIHSut6LT4EA-38">
          <mxGeometry width="50" height="50" relative="1" as="geometry">
            <mxPoint x="685" y="688.5" as="sourcePoint" />
            <mxPoint x="860" y="689" as="targetPoint" />
          </mxGeometry>
        </mxCell>
      </root>
    </mxGraphModel>
  </diagram>
</mxfile>
